<?xml version="1.0" encoding="utf-8" standalone="no"?>
<!DOCTYPE svg PUBLIC "-//W3C//DTD SVG 1.1//EN"
  "http://www.w3.org/Graphics/SVG/1.1/DTD/svg11.dtd">
<!-- Created with matplotlib (http://matplotlib.org/) -->
<svg height="432pt" version="1.1" viewBox="0 0 576 432" width="576pt" xmlns="http://www.w3.org/2000/svg" xmlns:xlink="http://www.w3.org/1999/xlink">
 <defs>
  <style type="text/css">
*{stroke-linecap:butt;stroke-linejoin:round;}
  </style>
 </defs>
 <g id="figure_1">
  <g id="patch_1">
   <path d="
M0 432
L576 432
L576 0
L0 0
z
" style="fill:#ffffff;"/>
  </g>
  <g id="axes_1">
   <g id="patch_2">
    <path d="
M72 388.8
L518.4 388.8
L518.4 43.2
L72 43.2
z
" style="fill:#ffffff;"/>
   </g>
   <g id="line2d_1">
    <path clip-path="url(#p7ff5b81e1d)" d="
M72.4329 188.687
L72.6818 191.287
L72.744 191.476
L72.8184 191.324
L72.9021 191.428
L72.9998 190.945
L73.0974 191.053
L73.488 188.779
L73.7006 187.443
L74.232 184.488
L74.356 182.259
L74.48 183.373
L74.852 182.364
L75.224 181.904
L75.472 181.935
L75.72 182.197
L76.092 182.935
L76.216 182.603
L76.588 183.89
L76.712 183.72
L77.084 185.759
L77.208 186.607
L77.3568 183.373
L77.6544 189.759
L78.2496 194.851
L79.5888 210.571
L81.0768 228.865
L81.3744 232.497
L81.9696 240.118
L82.2672 244.212
L82.3416 273.349
L82.4987 246.419
L82.5931 246.424
L82.7821 252.207
L83.16 257.263
L83.2663 255.677
L83.4789 260.982
L84.648 274.202
L85.4983 281.702
L86.2423 286.455
L86.88 289.202
L87.4114 290.508
L87.9429 291.075
L88.2617 290.977
L88.6869 290.216
L89.112 288.824
L90.0686 284.481
L90.6 280.843
L90.724 281.836
L90.972 278.226
L91.84 269.777
L92.832 257.678
L94.072 238.679
L95.932 205.535
L97.42 179.832
L97.544 180.307
L97.792 177.997
L97.916 176.446
L97.978 146.617
L98.04 168.78
L98.1076 169.557
L98.2687 168.713
L98.4405 162.48
L98.784 157.089
L98.877 158.455
L99.156 152.649
L100.272 136.312
L101.202 125.44
L102.504 114.645
L103.155 111.261
L103.713 109.465
L103.992 108.875
L104.643 108.795
L104.829 109.034
L104.922 108.962
L105.48 110.487
L105.759 111.191
L106.224 113.685
L106.33 113.086
L106.543 115.269
L107.393 121.667
L107.712 124.64
L107.836 123.382
L108.084 128.088
L108.704 135.093
L109.82 150.757
L111.308 175.887
L113.788 219.47
L113.912 218.966
L114.011 226.322
L114.11 220.911
L114.309 225.143
L114.621 234.21
L115.577 248.47
L115.657 258.375
L115.737 251.537
L115.816 252.449
L117.053 269.522
L117.963 279.708
L118.789 287.04
L119.533 291.895
L120.195 294.758
L120.691 295.938
L121.021 296.446
L121.104 296.37
L121.269 296.497
L121.848 295.891
L121.941 296.276
L122.22 294.941
L122.406 294.244
L122.592 294.112
L123.057 291.528
L123.708 287.402
L124.08 284.681
L124.186 285.932
L124.399 282.276
L125.355 272.124
L126.312 259.147
L127.8 235.28
L130.032 199.603
L130.138 199.915
L130.245 199.238
L130.67 190.935
L130.989 183.671
L132.902 159.002
L132.955 134.143
L133.008 155.427
L133.07 158.856
L133.138 157.516
L133.215 157.603
L133.368 153.684
L133.752 149.915
L133.835 150.635
L134.083 147.047
L135.157 139.389
L135.901 136.161
L135.984 135.888
L136.077 136.537
L136.263 135.197
L136.635 134.548
L136.914 134.361
L137.286 134.442
L137.472 134.576
L137.844 135.369
L138.123 136.073
L138.216 136.012
L139.611 143.215
L139.704 143.891
L139.81 142.803
L140.023 145.909
L141.192 156.124
L142.149 167.015
L143.211 181.201
L146.187 222.567
L146.4 222.059
L146.613 223.941
L146.931 228.73
L147.888 240.4
L148.101 242.378
L148.189 248.666
L148.278 244.593
L148.366 245.354
L148.632 247.632
L148.725 247.332
L149.004 250.794
L149.841 257.042
L150.585 261.057
L151.236 263.484
L151.98 265.2
L152.352 265.45
L152.538 265.449
L152.91 265.212
L153.282 264.588
L153.84 263.443
L154.119 262.277
L154.491 260.753
L155.235 256.45
L156.165 249.366
L156.816 243.384
L156.922 244.271
L157.135 240.284
L158.091 229.097
L159.154 214.097
L162.662 162.1
L162.874 161.429
L163.299 156.853
L163.937 147.737
L164.256 145.177
L165.425 136.687
L166.275 132.898
L166.594 132.111
L166.913 131.775
L167.126 131.755
L167.338 131.859
L167.657 132.316
L168.189 134.024
L168.72 136.792
L169.358 141.32
L170.102 148.266
L171.165 160.517
L172.546 180.214
L174.247 207.781
L178.498 278.473
L178.817 281.799
L178.923 281.749
L179.03 281.15
L179.136 281.435
L179.455 283.703
L180.411 293.07
L180.943 295.139
L181.581 297.356
L181.687 297.401
L181.793 297.672
L182.218 299.738
L182.643 299.781
L182.962 299.46
L183.387 298.596
L183.813 297.228
L184.45 294.245
L185.088 290.187
L185.832 283.845
L186.789 273.369
L187.426 265.063
L188.595 246.36
L189.765 223.925
L191.253 190.847
L193.91 130.403
L195.079 108.773
L195.291 107.371
L195.398 107.191
L196.035 100.675
L196.354 95.9833
L197.098 89.9937
L197.842 86.7041
L198.161 86.1955
L198.374 86.0831
L198.586 86.255
L198.799 86.6291
L199.118 87.5676
L199.649 90.3839
L200.181 94.5453
L200.818 101.143
L201.775 114.298
L202.944 134.657
L204.219 160.131
L207.621 231.453
L208.896 255.967
L209.02 253.41
L209.268 262.168
L210.756 287.096
L211.252 294.621
L211.5 292.628
L211.624 294.774
L211.748 298.865
L211.996 297.921
L212.12 297.932
L212.368 299.431
L212.988 308.322
L213.236 310.261
L213.608 311.974
L214.352 315.337
L214.724 316.355
L215.096 316.82
L215.344 316.842
L215.592 316.616
L215.964 315.87
L216.212 315.122
L216.274 332.733
L216.404 314.377
L216.565 312.066
L216.651 313.329
L217.08 310.443
L217.173 308.75
L217.266 308.893
L218.01 301.83
L218.754 292.521
L219.963 273.257
L221.438 244.376
L225.264 165.788
L225.388 167.377
L225.636 159.964
L226.628 144.739
L227.62 133.039
L227.992 130.948
L228.24 131.266
L228.364 131.359
L228.612 129.684
L229.232 124.703
L229.48 123.786
L230.472 122.735
L230.844 122.873
L231.092 123.17
L231.154 101.011
L231.284 123.978
L231.445 126.091
L231.531 123.958
L231.616 124.182
L231.96 125.359
L232.053 127.218
L232.146 126.217
L232.89 129.636
L234.192 138.093
L235.215 146.465
L236.982 163.542
L237.168 165.595
L237.274 165.199
L237.593 169.767
L238.443 178.916
L240.463 202.022
L240.888 207.438
L241.012 204.696
L241.26 211.568
L242.996 232.898
L243.492 237.567
L243.616 238.054
L243.74 239.041
L243.864 238.954
L244.608 243.944
L244.732 243.547
L244.98 244.457
L245.848 252.183
L246.468 254.452
L246.592 254.916
L246.675 268.075
L246.757 256.584
L246.84 256.623
L246.933 253.999
L247.119 256.95
L248.049 258.537
L248.421 258.734
L248.793 258.611
L249.258 258.062
L249.63 257.329
L250.374 255.004
L251.118 251.617
L252.234 244.77
L253.749 232.559
L256.512 205.015
L258.638 182.773
L260.019 171.422
L260.232 172.075
L260.551 170.648
L260.976 172.05
L261.082 171.762
L261.72 168.486
L261.826 168.359
L262.039 168.617
L262.251 168.637
L262.889 169.288
L263.527 170.854
L264.058 172.731
L264.909 177.111
L265.971 184.069
L267.672 197.477
L270.01 216.316
L270.223 217.787
L270.754 221.675
L272.03 230.114
L272.561 233.659
L273.305 239.393
L273.624 241.664
L273.748 237.971
L273.996 243.607
L274.864 249.427
L274.988 248.953
L275.112 249.109
L275.36 252.088
L275.484 251.984
L275.732 253.697
L275.856 253.481
L276.228 251.79
L276.476 252.117
L276.724 252.38
L276.972 253.112
L277.096 252.986
L277.344 251.308
L277.592 249.937
L277.716 249.802
L277.964 250.12
L278.212 250.945
L278.46 250.609
L278.832 249.305
L278.956 248.754
L279.059 253.475
L279.266 247.835
L279.576 246.34
L279.682 245.202
L279.789 245.264
L280.426 241.779
L281.383 235.247
L282.446 226.51
L283.827 213.544
L287.016 183.174
L288.61 170.727
L289.142 167.231
L290.417 159.38
L290.523 159.11
L290.949 157.404
L291.161 156.738
L291.374 155.336
L291.48 155.019
L291.586 155.128
L291.693 154.922
L291.905 153.61
L292.118 152.999
L292.33 153.771
L292.543 154.967
L292.968 155.019
L293.181 154.626
L293.393 156.164
L293.606 157.93
L293.818 158.617
L293.925 158.65
L294.137 158.192
L294.35 158.529
L295.731 164.665
L297.219 173.171
L299.239 186.966
L305.616 234.813
L305.74 231.416
L305.988 236.956
L306.98 244.065
L307.228 244.198
L307.848 249.265
L307.972 249.606
L308.344 251.218
L308.84 249.732
L309.088 249.753
L309.336 250.063
L309.708 250.75
L309.832 250.552
L310.328 247.647
L310.452 247.406
L310.824 247.662
L311.072 248.178
L311.32 247.653
L311.568 246.718
L311.674 250.926
L311.887 245.71
L313.056 240.401
L314.225 233.832
L316.138 221.098
L318.264 207.074
L319.114 202.18
L319.646 199.176
L320.496 194.786
L321.24 191.731
L324.429 177.799
L324.641 177.242
L325.066 175.078
L325.173 175.144
L325.385 175.532
L325.598 175.12
L325.704 174.877
L325.81 175.033
L326.129 176.046
L326.235 175.998
L326.661 173.204
L326.873 172.45
L327.086 172.795
L327.405 172.365
L327.936 171.362
L328.893 169.578
L329.637 168.744
L329.955 168.481
L330.274 168.281
L330.912 168.226
L331.975 169.247
L332.187 169.968
L332.4 170.24
L333.675 173.561
L334.845 177.52
L336.226 183.402
L337.821 191.831
L338.565 196.92
L340.584 213.07
L341.009 215.943
L342.603 225.916
L342.71 225.978
L342.816 226.168
L343.135 227.82
L343.773 233.385
L346.536 248.91
L347.705 253.427
L348.449 255.442
L349.406 257.128
L349.512 257.094
L349.725 257.23
L349.937 257.326
L350.256 257.229
L350.787 256.771
L351.319 255.703
L351.957 253.875
L352.701 250.785
L353.551 246.149
L354.189 241.554
L355.039 233.581
L356.846 212.747
L358.227 196.903
L358.44 195.553
L359.078 191.026
L359.503 184.847
L361.841 163.76
L363.01 155.4
L364.073 149.615
L364.817 146.661
L365.561 144.663
L365.986 144.072
L366.093 144.037
L366.305 143.46
L366.624 143.27
L366.943 143.315
L367.262 143.47
L367.368 143.419
L367.581 143.73
L368.75 146.474
L369.706 150.361
L370.344 154.107
L371.194 160.865
L372.363 172.291
L374.277 192.357
L374.489 194.844
L374.914 199.268
L375.233 202.245
L375.446 204.372
L375.765 206.052
L376.402 214.16
L377.146 222.457
L377.784 228.776
L377.877 232.827
L377.97 230.867
L379.644 245.473
L380.574 251.992
L381.597 257.322
L382.527 260.829
L383.55 262.274
L383.829 262.276
L384.201 262.045
L384.48 261.67
L384.586 262.717
L384.799 261.168
L385.543 258.85
L386.287 255.335
L386.818 251.835
L387.562 245.48
L388.625 234.042
L390.432 212.631
L390.857 207.524
L391.282 204.172
L391.389 204.185
L391.707 201.453
L393.939 177.581
L395.215 166.823
L396.49 158.59
L397.659 153.817
L398.297 152.196
L398.829 151.445
L399.147 151.232
L399.573 151.326
L399.679 151.382
L399.891 151.796
L400.104 151.53
L400.317 151.79
L400.848 152.755
L401.805 155.698
L402.867 160.497
L403.505 164.828
L404.568 173.972
L406.056 188.602
L407.757 204.756
L408.182 207.625
L408.819 213.493
L409.776 224.095
L410.52 231.052
L410.613 235.148
L410.706 232.981
L412.473 246.168
L413.31 251.049
L414.054 254.343
L414.612 256.057
L415.077 256.997
L415.542 257.47
L415.914 257.515
L416.286 257.295
L416.379 257.163
L416.472 257.307
L416.578 258.107
L416.791 256.843
L417.535 254.777
L418.385 250.744
L419.342 244.335
L420.511 232.916
L421.893 215.544
L422.424 208.318
L422.548 211.091
L422.796 203.769
L423.912 187.175
L424.16 186.214
L424.408 182.759
L424.904 174.742
L426.764 150.457
L426.826 124.56
L426.956 148.443
L427.117 148.873
L427.288 144.455
L427.632 140.94
L427.725 141.745
L427.911 138.44
L428.934 130.247
L429.585 126.8
L430.05 125.224
L430.143 125.128
L430.422 124.214
L430.98 124.126
L431.166 124.328
L431.538 125.229
L432.003 126.886
L432.561 129.985
L433.305 135.806
L433.584 138.469
L433.69 137.849
L433.903 141.434
L434.222 144.585
L435.391 159.22
L436.56 177.935
L438.154 206.765
L440.28 243.941
L440.918 250.972
L441.237 256.147
L441.555 260.103
L442.087 267.088
L443.681 284.149
L444.531 290.232
L445.169 293.55
L446.019 296.651
L446.232 297.008
L446.551 297.626
L446.763 297.728
L447.082 297.506
L447.507 296.876
L447.933 295.661
L448.57 293.015
L449.208 289.199
L449.952 283.293
L451.334 268.797
L452.397 253.431
L453.353 236.802
L453.672 230.861
L453.796 232.245
L454.044 224.26
L457.02 167.983
L457.268 166.666
L458.88 140.475
L459.5 132.548
L459.624 131.221
L459.73 126.556
L459.837 128.708
L460.899 119.607
L461.112 118.192
L461.537 115.6
L461.962 113.645
L462.494 112.124
L462.919 111.607
L463.238 111.743
L463.663 112.436
L464.088 113.736
L464.619 116.25
L465.257 120.435
L466.001 127.029
L467.064 138.963
L468.339 156.233
L469.721 178.885
L472.697 229.137
L473.016 232.774
L473.547 235.54
L474.185 244.384
L475.354 256.409
L476.311 263.926
L476.949 267.912
L477.905 272.809
L478.224 273.97
L478.543 275.118
L479.499 276.21
L479.818 276.065
L480.243 275.479
L480.775 274.083
L481.413 271.558
L482.05 267.993
L482.794 262.463
L483.751 253.624
L484.601 243.961
L485.558 230.938
L485.664 229.396
L485.788 231.144
L486.036 224.411
L488.516 189.191
L489.26 180.289
L489.384 180.06
L489.508 180.17
L489.632 180.039
L489.88 177.219
L490.128 174.538
L490.748 170.044
L491.368 165.844
L492.36 160.923
L492.466 157.076
L492.573 160.112
L493.21 158.744
L493.954 158.052
L494.486 158.29
L494.805 158.574
L495.23 159.3
L496.08 161.6
L496.93 164.88
L497.887 169.517
L499.162 177.226
L500.863 189.143
L501.607 194.997
L504.264 217.155
L505.221 223.445
L505.327 223.46
L505.433 223.808
L505.752 221.862
L506.177 223.516
L506.39 224.232
L506.709 225.296
L506.921 225.727
L507.24 227.12
L507.665 227.947
L508.197 228.593
L508.728 228.855
L509.047 228.844
L509.685 228.371
L510.429 227.327
L511.066 226.006
L512.023 223.435
L512.873 220.499
L513.936 216.022
L515.211 209.694
L517.018 199.815
L517.975 193.791
L518.4 191.052
L518.4 191.052" style="fill:none;stroke:#0000ff;stroke-linecap:square;"/>
   </g>
   <g id="matplotlib.axis_1">
    <g id="xtick_1">
     <g id="line2d_2">
      <defs>
       <path d="
M0 0
L0 -4" id="mc7db9fdffb" style="stroke:#000000;stroke-width:0.5;"/>
      </defs>
      <g>
       <use style="stroke:#000000;stroke-width:0.5;" x="72.0" xlink:href="#mc7db9fdffb" y="388.8"/>
      </g>
     </g>
     <g id="line2d_3">
      <defs>
       <path d="
M0 0
L0 4" id="m5a7d422ac3" style="stroke:#000000;stroke-width:0.5;"/>
      </defs>
      <g>
       <use style="stroke:#000000;stroke-width:0.5;" x="72.0" xlink:href="#m5a7d422ac3" y="43.2"/>
      </g>
     </g>
     <g id="text_1">
      <!-- 0 -->
      <defs>
       <path d="
M31.7812 66.4062
Q24.1719 66.4062 20.3281 58.9062
Q16.5 51.4219 16.5 36.375
Q16.5 21.3906 20.3281 13.8906
Q24.1719 6.39062 31.7812 6.39062
Q39.4531 6.39062 43.2812 13.8906
Q47.125 21.3906 47.125 36.375
Q47.125 51.4219 43.2812 58.9062
Q39.4531 66.4062 31.7812 66.4062
M31.7812 74.2188
Q44.0469 74.2188 50.5156 64.5156
Q56.9844 54.8281 56.9844 36.375
Q56.9844 17.9688 50.5156 8.26562
Q44.0469 -1.42188 31.7812 -1.42188
Q19.5312 -1.42188 13.0625 8.26562
Q6.59375 17.9688 6.59375 36.375
Q6.59375 54.8281 13.0625 64.5156
Q19.5312 74.2188 31.7812 74.2188" id="BitstreamVeraSans-Roman-30"/>
      </defs>
      <g transform="translate(68.9765625 401.918125)scale(0.12 -0.12)">
       <use xlink:href="#BitstreamVeraSans-Roman-30"/>
      </g>
     </g>
    </g>
    <g id="xtick_2">
     <g id="line2d_4">
      <g>
       <use style="stroke:#000000;stroke-width:0.5;" x="146.4" xlink:href="#mc7db9fdffb" y="388.8"/>
      </g>
     </g>
     <g id="line2d_5">
      <g>
       <use style="stroke:#000000;stroke-width:0.5;" x="146.4" xlink:href="#m5a7d422ac3" y="43.2"/>
      </g>
     </g>
     <g id="text_2">
      <!-- 5 -->
      <defs>
       <path d="
M10.7969 72.9062
L49.5156 72.9062
L49.5156 64.5938
L19.8281 64.5938
L19.8281 46.7344
Q21.9688 47.4688 24.1094 47.8281
Q26.2656 48.1875 28.4219 48.1875
Q40.625 48.1875 47.75 41.5
Q54.8906 34.8125 54.8906 23.3906
Q54.8906 11.625 47.5625 5.09375
Q40.2344 -1.42188 26.9062 -1.42188
Q22.3125 -1.42188 17.5469 -0.640625
Q12.7969 0.140625 7.71875 1.70312
L7.71875 11.625
Q12.1094 9.23438 16.7969 8.0625
Q21.4844 6.89062 26.7031 6.89062
Q35.1562 6.89062 40.0781 11.3281
Q45.0156 15.7656 45.0156 23.3906
Q45.0156 31 40.0781 35.4375
Q35.1562 39.8906 26.7031 39.8906
Q22.75 39.8906 18.8125 39.0156
Q14.8906 38.1406 10.7969 36.2812
z
" id="BitstreamVeraSans-Roman-35"/>
      </defs>
      <g transform="translate(143.5696875 401.918125)scale(0.12 -0.12)">
       <use xlink:href="#BitstreamVeraSans-Roman-35"/>
      </g>
     </g>
    </g>
    <g id="xtick_3">
     <g id="line2d_6">
      <g>
       <use style="stroke:#000000;stroke-width:0.5;" x="220.8" xlink:href="#mc7db9fdffb" y="388.8"/>
      </g>
     </g>
     <g id="line2d_7">
      <g>
       <use style="stroke:#000000;stroke-width:0.5;" x="220.8" xlink:href="#m5a7d422ac3" y="43.2"/>
      </g>
     </g>
     <g id="text_3">
      <!-- 10 -->
      <defs>
       <path d="
M12.4062 8.29688
L28.5156 8.29688
L28.5156 63.9219
L10.9844 60.4062
L10.9844 69.3906
L28.4219 72.9062
L38.2812 72.9062
L38.2812 8.29688
L54.3906 8.29688
L54.3906 0
L12.4062 0
z
" id="BitstreamVeraSans-Roman-31"/>
      </defs>
      <g transform="translate(214.2225 401.918125)scale(0.12 -0.12)">
       <use xlink:href="#BitstreamVeraSans-Roman-31"/>
       <use x="63.623046875" xlink:href="#BitstreamVeraSans-Roman-30"/>
      </g>
     </g>
    </g>
    <g id="xtick_4">
     <g id="line2d_8">
      <g>
       <use style="stroke:#000000;stroke-width:0.5;" x="295.2" xlink:href="#mc7db9fdffb" y="388.8"/>
      </g>
     </g>
     <g id="line2d_9">
      <g>
       <use style="stroke:#000000;stroke-width:0.5;" x="295.2" xlink:href="#m5a7d422ac3" y="43.2"/>
      </g>
     </g>
     <g id="text_4">
      <!-- 15 -->
      <g transform="translate(288.748125 401.918125)scale(0.12 -0.12)">
       <use xlink:href="#BitstreamVeraSans-Roman-31"/>
       <use x="63.623046875" xlink:href="#BitstreamVeraSans-Roman-35"/>
      </g>
     </g>
    </g>
    <g id="xtick_5">
     <g id="line2d_10">
      <g>
       <use style="stroke:#000000;stroke-width:0.5;" x="369.6" xlink:href="#mc7db9fdffb" y="388.8"/>
      </g>
     </g>
     <g id="line2d_11">
      <g>
       <use style="stroke:#000000;stroke-width:0.5;" x="369.6" xlink:href="#m5a7d422ac3" y="43.2"/>
      </g>
     </g>
     <g id="text_5">
      <!-- 20 -->
      <defs>
       <path d="
M19.1875 8.29688
L53.6094 8.29688
L53.6094 0
L7.32812 0
L7.32812 8.29688
Q12.9375 14.1094 22.625 23.8906
Q32.3281 33.6875 34.8125 36.5312
Q39.5469 41.8438 41.4219 45.5312
Q43.3125 49.2188 43.3125 52.7812
Q43.3125 58.5938 39.2344 62.25
Q35.1562 65.9219 28.6094 65.9219
Q23.9688 65.9219 18.8125 64.3125
Q13.6719 62.7031 7.8125 59.4219
L7.8125 69.3906
Q13.7656 71.7812 18.9375 73
Q24.125 74.2188 28.4219 74.2188
Q39.75 74.2188 46.4844 68.5469
Q53.2188 62.8906 53.2188 53.4219
Q53.2188 48.9219 51.5312 44.8906
Q49.8594 40.875 45.4062 35.4062
Q44.1875 33.9844 37.6406 27.2188
Q31.1094 20.4531 19.1875 8.29688" id="BitstreamVeraSans-Roman-32"/>
      </defs>
      <g transform="translate(362.803125 401.918125)scale(0.12 -0.12)">
       <use xlink:href="#BitstreamVeraSans-Roman-32"/>
       <use x="63.623046875" xlink:href="#BitstreamVeraSans-Roman-30"/>
      </g>
     </g>
    </g>
    <g id="xtick_6">
     <g id="line2d_12">
      <g>
       <use style="stroke:#000000;stroke-width:0.5;" x="444.0" xlink:href="#mc7db9fdffb" y="388.8"/>
      </g>
     </g>
     <g id="line2d_13">
      <g>
       <use style="stroke:#000000;stroke-width:0.5;" x="444.0" xlink:href="#m5a7d422ac3" y="43.2"/>
      </g>
     </g>
     <g id="text_6">
      <!-- 25 -->
      <g transform="translate(437.32875 401.918125)scale(0.12 -0.12)">
       <use xlink:href="#BitstreamVeraSans-Roman-32"/>
       <use x="63.623046875" xlink:href="#BitstreamVeraSans-Roman-35"/>
      </g>
     </g>
    </g>
    <g id="xtick_7">
     <g id="line2d_14">
      <g>
       <use style="stroke:#000000;stroke-width:0.5;" x="518.4" xlink:href="#mc7db9fdffb" y="388.8"/>
      </g>
     </g>
     <g id="line2d_15">
      <g>
       <use style="stroke:#000000;stroke-width:0.5;" x="518.4" xlink:href="#m5a7d422ac3" y="43.2"/>
      </g>
     </g>
     <g id="text_7">
      <!-- 30 -->
      <defs>
       <path d="
M40.5781 39.3125
Q47.6562 37.7969 51.625 33
Q55.6094 28.2188 55.6094 21.1875
Q55.6094 10.4062 48.1875 4.48438
Q40.7656 -1.42188 27.0938 -1.42188
Q22.5156 -1.42188 17.6562 -0.515625
Q12.7969 0.390625 7.625 2.20312
L7.625 11.7188
Q11.7188 9.32812 16.5938 8.10938
Q21.4844 6.89062 26.8125 6.89062
Q36.0781 6.89062 40.9375 10.5469
Q45.7969 14.2031 45.7969 21.1875
Q45.7969 27.6406 41.2812 31.2656
Q36.7656 34.9062 28.7188 34.9062
L20.2188 34.9062
L20.2188 43.0156
L29.1094 43.0156
Q36.375 43.0156 40.2344 45.9219
Q44.0938 48.8281 44.0938 54.2969
Q44.0938 59.9062 40.1094 62.9062
Q36.1406 65.9219 28.7188 65.9219
Q24.6562 65.9219 20.0156 65.0312
Q15.375 64.1562 9.8125 62.3125
L9.8125 71.0938
Q15.4375 72.6562 20.3438 73.4375
Q25.25 74.2188 29.5938 74.2188
Q40.8281 74.2188 47.3594 69.1094
Q53.9062 64.0156 53.9062 55.3281
Q53.9062 49.2656 50.4375 45.0938
Q46.9688 40.9219 40.5781 39.3125" id="BitstreamVeraSans-Roman-33"/>
      </defs>
      <g transform="translate(511.6209375 401.918125)scale(0.12 -0.12)">
       <use xlink:href="#BitstreamVeraSans-Roman-33"/>
       <use x="63.623046875" xlink:href="#BitstreamVeraSans-Roman-30"/>
      </g>
     </g>
    </g>
    <g id="text_8">
     <!-- t (s) -->
     <defs>
      <path d="
M44.2812 53.0781
L44.2812 44.5781
Q40.4844 46.5312 36.375 47.5
Q32.2812 48.4844 27.875 48.4844
Q21.1875 48.4844 17.8438 46.4375
Q14.5 44.3906 14.5 40.2812
Q14.5 37.1562 16.8906 35.375
Q19.2812 33.5938 26.5156 31.9844
L29.5938 31.2969
Q39.1562 29.25 43.1875 25.5156
Q47.2188 21.7812 47.2188 15.0938
Q47.2188 7.46875 41.1875 3.01562
Q35.1562 -1.42188 24.6094 -1.42188
Q20.2188 -1.42188 15.4531 -0.5625
Q10.6875 0.296875 5.42188 2
L5.42188 11.2812
Q10.4062 8.6875 15.2344 7.39062
Q20.0625 6.10938 24.8125 6.10938
Q31.1562 6.10938 34.5625 8.28125
Q37.9844 10.4531 37.9844 14.4062
Q37.9844 18.0625 35.5156 20.0156
Q33.0625 21.9688 24.7031 23.7812
L21.5781 24.5156
Q13.2344 26.2656 9.51562 29.9062
Q5.8125 33.5469 5.8125 39.8906
Q5.8125 47.6094 11.2812 51.7969
Q16.75 56 26.8125 56
Q31.7812 56 36.1719 55.2656
Q40.5781 54.5469 44.2812 53.0781" id="BitstreamVeraSans-Roman-73"/>
      <path d="
M31 75.875
Q24.4688 64.6562 21.2812 53.6562
Q18.1094 42.6719 18.1094 31.3906
Q18.1094 20.125 21.3125 9.0625
Q24.5156 -2 31 -13.1875
L23.1875 -13.1875
Q15.875 -1.70312 12.2344 9.375
Q8.59375 20.4531 8.59375 31.3906
Q8.59375 42.2812 12.2031 53.3125
Q15.8281 64.3594 23.1875 75.875
z
" id="BitstreamVeraSans-Roman-28"/>
      <path d="
M18.3125 70.2188
L18.3125 54.6875
L36.8125 54.6875
L36.8125 47.7031
L18.3125 47.7031
L18.3125 18.0156
Q18.3125 11.3281 20.1406 9.42188
Q21.9688 7.51562 27.5938 7.51562
L36.8125 7.51562
L36.8125 0
L27.5938 0
Q17.1875 0 13.2344 3.875
Q9.28125 7.76562 9.28125 18.0156
L9.28125 47.7031
L2.6875 47.7031
L2.6875 54.6875
L9.28125 54.6875
L9.28125 70.2188
z
" id="BitstreamVeraSans-Roman-74"/>
      <path id="BitstreamVeraSans-Roman-20"/>
      <path d="
M8.01562 75.875
L15.8281 75.875
Q23.1406 64.3594 26.7812 53.3125
Q30.4219 42.2812 30.4219 31.3906
Q30.4219 20.4531 26.7812 9.375
Q23.1406 -1.70312 15.8281 -13.1875
L8.01562 -13.1875
Q14.5 -2 17.7031 9.0625
Q20.9062 20.125 20.9062 31.3906
Q20.9062 42.6719 17.7031 53.6562
Q14.5 64.6562 8.01562 75.875" id="BitstreamVeraSans-Roman-29"/>
     </defs>
     <g transform="translate(283.6490625 418.531875)scale(0.12 -0.12)">
      <use xlink:href="#BitstreamVeraSans-Roman-74"/>
      <use x="39.208984375" xlink:href="#BitstreamVeraSans-Roman-20"/>
      <use x="70.99609375" xlink:href="#BitstreamVeraSans-Roman-28"/>
      <use x="110.009765625" xlink:href="#BitstreamVeraSans-Roman-73"/>
      <use x="162.109375" xlink:href="#BitstreamVeraSans-Roman-29"/>
     </g>
    </g>
   </g>
   <g id="matplotlib.axis_2">
    <g id="ytick_1">
     <g id="line2d_16">
      <defs>
       <path d="
M0 0
L4 0" id="md7965d1ba0" style="stroke:#000000;stroke-width:0.5;"/>
      </defs>
      <g>
       <use style="stroke:#000000;stroke-width:0.5;" x="72.0" xlink:href="#md7965d1ba0" y="388.8"/>
      </g>
     </g>
     <g id="line2d_17">
      <defs>
       <path d="
M0 0
L-4 0" id="md9a1c1a7cd" style="stroke:#000000;stroke-width:0.5;"/>
      </defs>
      <g>
       <use style="stroke:#000000;stroke-width:0.5;" x="518.4" xlink:href="#md9a1c1a7cd" y="388.8"/>
      </g>
     </g>
     <g id="text_9">
      <!-- −30000 -->
      <defs>
       <path d="
M10.5938 35.5
L73.1875 35.5
L73.1875 27.2031
L10.5938 27.2031
z
" id="BitstreamVeraSans-Roman-2212"/>
      </defs>
      <g transform="translate(21.8375 392.11125)scale(0.12 -0.12)">
       <use xlink:href="#BitstreamVeraSans-Roman-2212"/>
       <use x="83.7890625" xlink:href="#BitstreamVeraSans-Roman-33"/>
       <use x="147.412109375" xlink:href="#BitstreamVeraSans-Roman-30"/>
       <use x="211.03515625" xlink:href="#BitstreamVeraSans-Roman-30"/>
       <use x="274.658203125" xlink:href="#BitstreamVeraSans-Roman-30"/>
       <use x="338.28125" xlink:href="#BitstreamVeraSans-Roman-30"/>
      </g>
     </g>
    </g>
    <g id="ytick_2">
     <g id="line2d_18">
      <g>
       <use style="stroke:#000000;stroke-width:0.5;" x="72.0" xlink:href="#md7965d1ba0" y="331.2"/>
      </g>
     </g>
     <g id="line2d_19">
      <g>
       <use style="stroke:#000000;stroke-width:0.5;" x="518.4" xlink:href="#md9a1c1a7cd" y="331.2"/>
      </g>
     </g>
     <g id="text_10">
      <!-- −20000 -->
      <g transform="translate(21.8375 334.51125)scale(0.12 -0.12)">
       <use xlink:href="#BitstreamVeraSans-Roman-2212"/>
       <use x="83.7890625" xlink:href="#BitstreamVeraSans-Roman-32"/>
       <use x="147.412109375" xlink:href="#BitstreamVeraSans-Roman-30"/>
       <use x="211.03515625" xlink:href="#BitstreamVeraSans-Roman-30"/>
       <use x="274.658203125" xlink:href="#BitstreamVeraSans-Roman-30"/>
       <use x="338.28125" xlink:href="#BitstreamVeraSans-Roman-30"/>
      </g>
     </g>
    </g>
    <g id="ytick_3">
     <g id="line2d_20">
      <g>
       <use style="stroke:#000000;stroke-width:0.5;" x="72.0" xlink:href="#md7965d1ba0" y="273.6"/>
      </g>
     </g>
     <g id="line2d_21">
      <g>
       <use style="stroke:#000000;stroke-width:0.5;" x="518.4" xlink:href="#md9a1c1a7cd" y="273.6"/>
      </g>
     </g>
     <g id="text_11">
      <!-- −10000 -->
      <g transform="translate(21.8375 276.91125)scale(0.12 -0.12)">
       <use xlink:href="#BitstreamVeraSans-Roman-2212"/>
       <use x="83.7890625" xlink:href="#BitstreamVeraSans-Roman-31"/>
       <use x="147.412109375" xlink:href="#BitstreamVeraSans-Roman-30"/>
       <use x="211.03515625" xlink:href="#BitstreamVeraSans-Roman-30"/>
       <use x="274.658203125" xlink:href="#BitstreamVeraSans-Roman-30"/>
       <use x="338.28125" xlink:href="#BitstreamVeraSans-Roman-30"/>
      </g>
     </g>
    </g>
    <g id="ytick_4">
     <g id="line2d_22">
      <g>
       <use style="stroke:#000000;stroke-width:0.5;" x="72.0" xlink:href="#md7965d1ba0" y="216.0"/>
      </g>
     </g>
     <g id="line2d_23">
      <g>
       <use style="stroke:#000000;stroke-width:0.5;" x="518.4" xlink:href="#md9a1c1a7cd" y="216.0"/>
      </g>
     </g>
     <g id="text_12">
      <!-- 0 -->
      <g transform="translate(61.953125 219.31125)scale(0.12 -0.12)">
       <use xlink:href="#BitstreamVeraSans-Roman-30"/>
      </g>
     </g>
    </g>
    <g id="ytick_5">
     <g id="line2d_24">
      <g>
       <use style="stroke:#000000;stroke-width:0.5;" x="72.0" xlink:href="#md7965d1ba0" y="158.4"/>
      </g>
     </g>
     <g id="line2d_25">
      <g>
       <use style="stroke:#000000;stroke-width:0.5;" x="518.4" xlink:href="#md9a1c1a7cd" y="158.4"/>
      </g>
     </g>
     <g id="text_13">
      <!-- 10000 -->
      <g transform="translate(31.94 161.71125)scale(0.12 -0.12)">
       <use xlink:href="#BitstreamVeraSans-Roman-31"/>
       <use x="63.623046875" xlink:href="#BitstreamVeraSans-Roman-30"/>
       <use x="127.24609375" xlink:href="#BitstreamVeraSans-Roman-30"/>
       <use x="190.869140625" xlink:href="#BitstreamVeraSans-Roman-30"/>
       <use x="254.4921875" xlink:href="#BitstreamVeraSans-Roman-30"/>
      </g>
     </g>
    </g>
    <g id="ytick_6">
     <g id="line2d_26">
      <g>
       <use style="stroke:#000000;stroke-width:0.5;" x="72.0" xlink:href="#md7965d1ba0" y="100.8"/>
      </g>
     </g>
     <g id="line2d_27">
      <g>
       <use style="stroke:#000000;stroke-width:0.5;" x="518.4" xlink:href="#md9a1c1a7cd" y="100.8"/>
      </g>
     </g>
     <g id="text_14">
      <!-- 20000 -->
      <g transform="translate(31.50125 104.11125)scale(0.12 -0.12)">
       <use xlink:href="#BitstreamVeraSans-Roman-32"/>
       <use x="63.623046875" xlink:href="#BitstreamVeraSans-Roman-30"/>
       <use x="127.24609375" xlink:href="#BitstreamVeraSans-Roman-30"/>
       <use x="190.869140625" xlink:href="#BitstreamVeraSans-Roman-30"/>
       <use x="254.4921875" xlink:href="#BitstreamVeraSans-Roman-30"/>
      </g>
     </g>
    </g>
    <g id="ytick_7">
     <g id="line2d_28">
      <g>
       <use style="stroke:#000000;stroke-width:0.5;" x="72.0" xlink:href="#md7965d1ba0" y="43.2"/>
      </g>
     </g>
     <g id="line2d_29">
      <g>
       <use style="stroke:#000000;stroke-width:0.5;" x="518.4" xlink:href="#md9a1c1a7cd" y="43.2"/>
      </g>
     </g>
     <g id="text_15">
      <!-- 30000 -->
      <g transform="translate(31.536875 46.51125)scale(0.12 -0.12)">
       <use xlink:href="#BitstreamVeraSans-Roman-33"/>
       <use x="63.623046875" xlink:href="#BitstreamVeraSans-Roman-30"/>
       <use x="127.24609375" xlink:href="#BitstreamVeraSans-Roman-30"/>
       <use x="190.869140625" xlink:href="#BitstreamVeraSans-Roman-30"/>
       <use x="254.4921875" xlink:href="#BitstreamVeraSans-Roman-30"/>
      </g>
     </g>
    </g>
    <g id="text_16">
     <!-- Flapper moment (Nm) -->
     <defs>
      <path d="
M9.8125 72.9062
L51.7031 72.9062
L51.7031 64.5938
L19.6719 64.5938
L19.6719 43.1094
L48.5781 43.1094
L48.5781 34.8125
L19.6719 34.8125
L19.6719 0
L9.8125 0
z
" id="BitstreamVeraSans-Roman-46"/>
      <path d="
M18.1094 8.20312
L18.1094 -20.7969
L9.07812 -20.7969
L9.07812 54.6875
L18.1094 54.6875
L18.1094 46.3906
Q20.9531 51.2656 25.2656 53.625
Q29.5938 56 35.5938 56
Q45.5625 56 51.7812 48.0938
Q58.0156 40.1875 58.0156 27.2969
Q58.0156 14.4062 51.7812 6.48438
Q45.5625 -1.42188 35.5938 -1.42188
Q29.5938 -1.42188 25.2656 0.953125
Q20.9531 3.32812 18.1094 8.20312
M48.6875 27.2969
Q48.6875 37.2031 44.6094 42.8438
Q40.5312 48.4844 33.4062 48.4844
Q26.2656 48.4844 22.1875 42.8438
Q18.1094 37.2031 18.1094 27.2969
Q18.1094 17.3906 22.1875 11.75
Q26.2656 6.10938 33.4062 6.10938
Q40.5312 6.10938 44.6094 11.75
Q48.6875 17.3906 48.6875 27.2969" id="BitstreamVeraSans-Roman-70"/>
      <path d="
M9.8125 72.9062
L23.0938 72.9062
L55.4219 11.9219
L55.4219 72.9062
L64.9844 72.9062
L64.9844 0
L51.7031 0
L19.3906 60.9844
L19.3906 0
L9.8125 0
z
" id="BitstreamVeraSans-Roman-4e"/>
      <path d="
M9.42188 75.9844
L18.4062 75.9844
L18.4062 0
L9.42188 0
z
" id="BitstreamVeraSans-Roman-6c"/>
      <path d="
M34.2812 27.4844
Q23.3906 27.4844 19.1875 25
Q14.9844 22.5156 14.9844 16.5
Q14.9844 11.7188 18.1406 8.90625
Q21.2969 6.10938 26.7031 6.10938
Q34.1875 6.10938 38.7031 11.4062
Q43.2188 16.7031 43.2188 25.4844
L43.2188 27.4844
z

M52.2031 31.2031
L52.2031 0
L43.2188 0
L43.2188 8.29688
Q40.1406 3.32812 35.5469 0.953125
Q30.9531 -1.42188 24.3125 -1.42188
Q15.9219 -1.42188 10.9531 3.29688
Q6 8.01562 6 15.9219
Q6 25.1406 12.1719 29.8281
Q18.3594 34.5156 30.6094 34.5156
L43.2188 34.5156
L43.2188 35.4062
Q43.2188 41.6094 39.1406 45
Q35.0625 48.3906 27.6875 48.3906
Q23 48.3906 18.5469 47.2656
Q14.1094 46.1406 10.0156 43.8906
L10.0156 52.2031
Q14.9375 54.1094 19.5781 55.0469
Q24.2188 56 28.6094 56
Q40.4844 56 46.3438 49.8438
Q52.2031 43.7031 52.2031 31.2031" id="BitstreamVeraSans-Roman-61"/>
      <path d="
M54.8906 33.0156
L54.8906 0
L45.9062 0
L45.9062 32.7188
Q45.9062 40.4844 42.875 44.3281
Q39.8438 48.1875 33.7969 48.1875
Q26.5156 48.1875 22.3125 43.5469
Q18.1094 38.9219 18.1094 30.9062
L18.1094 0
L9.07812 0
L9.07812 54.6875
L18.1094 54.6875
L18.1094 46.1875
Q21.3438 51.125 25.7031 53.5625
Q30.0781 56 35.7969 56
Q45.2188 56 50.0469 50.1719
Q54.8906 44.3438 54.8906 33.0156" id="BitstreamVeraSans-Roman-6e"/>
      <path d="
M52 44.1875
Q55.375 50.25 60.0625 53.125
Q64.75 56 71.0938 56
Q79.6406 56 84.2812 50.0156
Q88.9219 44.0469 88.9219 33.0156
L88.9219 0
L79.8906 0
L79.8906 32.7188
Q79.8906 40.5781 77.0938 44.375
Q74.3125 48.1875 68.6094 48.1875
Q61.625 48.1875 57.5625 43.5469
Q53.5156 38.9219 53.5156 30.9062
L53.5156 0
L44.4844 0
L44.4844 32.7188
Q44.4844 40.625 41.7031 44.4062
Q38.9219 48.1875 33.1094 48.1875
Q26.2188 48.1875 22.1562 43.5312
Q18.1094 38.875 18.1094 30.9062
L18.1094 0
L9.07812 0
L9.07812 54.6875
L18.1094 54.6875
L18.1094 46.1875
Q21.1875 51.2188 25.4844 53.6094
Q29.7812 56 35.6875 56
Q41.6562 56 45.8281 52.9688
Q50 49.9531 52 44.1875" id="BitstreamVeraSans-Roman-6d"/>
      <path d="
M30.6094 48.3906
Q23.3906 48.3906 19.1875 42.75
Q14.9844 37.1094 14.9844 27.2969
Q14.9844 17.4844 19.1562 11.8438
Q23.3438 6.20312 30.6094 6.20312
Q37.7969 6.20312 41.9844 11.8594
Q46.1875 17.5312 46.1875 27.2969
Q46.1875 37.0156 41.9844 42.7031
Q37.7969 48.3906 30.6094 48.3906
M30.6094 56
Q42.3281 56 49.0156 48.375
Q55.7188 40.7656 55.7188 27.2969
Q55.7188 13.875 49.0156 6.21875
Q42.3281 -1.42188 30.6094 -1.42188
Q18.8438 -1.42188 12.1719 6.21875
Q5.51562 13.875 5.51562 27.2969
Q5.51562 40.7656 12.1719 48.375
Q18.8438 56 30.6094 56" id="BitstreamVeraSans-Roman-6f"/>
      <path d="
M56.2031 29.5938
L56.2031 25.2031
L14.8906 25.2031
Q15.4844 15.9219 20.4844 11.0625
Q25.4844 6.20312 34.4219 6.20312
Q39.5938 6.20312 44.4531 7.46875
Q49.3125 8.73438 54.1094 11.2812
L54.1094 2.78125
Q49.2656 0.734375 44.1875 -0.34375
Q39.1094 -1.42188 33.8906 -1.42188
Q20.7969 -1.42188 13.1562 6.1875
Q5.51562 13.8125 5.51562 26.8125
Q5.51562 40.2344 12.7656 48.1094
Q20.0156 56 32.3281 56
Q43.3594 56 49.7812 48.8906
Q56.2031 41.7969 56.2031 29.5938
M47.2188 32.2344
Q47.125 39.5938 43.0938 43.9844
Q39.0625 48.3906 32.4219 48.3906
Q24.9062 48.3906 20.3906 44.1406
Q15.875 39.8906 15.1875 32.1719
z
" id="BitstreamVeraSans-Roman-65"/>
      <path d="
M41.1094 46.2969
Q39.5938 47.1719 37.8125 47.5781
Q36.0312 48 33.8906 48
Q26.2656 48 22.1875 43.0469
Q18.1094 38.0938 18.1094 28.8125
L18.1094 0
L9.07812 0
L9.07812 54.6875
L18.1094 54.6875
L18.1094 46.1875
Q20.9531 51.1719 25.4844 53.5781
Q30.0312 56 36.5312 56
Q37.4531 56 38.5781 55.875
Q39.7031 55.7656 41.0625 55.5156
z
" id="BitstreamVeraSans-Roman-72"/>
     </defs>
     <g transform="translate(14.341875 282.0909375)rotate(-90.0)scale(0.12 -0.12)">
      <use xlink:href="#BitstreamVeraSans-Roman-46"/>
      <use x="57.51953125" xlink:href="#BitstreamVeraSans-Roman-6c"/>
      <use x="85.302734375" xlink:href="#BitstreamVeraSans-Roman-61"/>
      <use x="146.58203125" xlink:href="#BitstreamVeraSans-Roman-70"/>
      <use x="210.05859375" xlink:href="#BitstreamVeraSans-Roman-70"/>
      <use x="273.53515625" xlink:href="#BitstreamVeraSans-Roman-65"/>
      <use x="335.05859375" xlink:href="#BitstreamVeraSans-Roman-72"/>
      <use x="376.171875" xlink:href="#BitstreamVeraSans-Roman-20"/>
      <use x="407.958984375" xlink:href="#BitstreamVeraSans-Roman-6d"/>
      <use x="505.37109375" xlink:href="#BitstreamVeraSans-Roman-6f"/>
      <use x="566.552734375" xlink:href="#BitstreamVeraSans-Roman-6d"/>
      <use x="663.96484375" xlink:href="#BitstreamVeraSans-Roman-65"/>
      <use x="725.48828125" xlink:href="#BitstreamVeraSans-Roman-6e"/>
      <use x="788.8671875" xlink:href="#BitstreamVeraSans-Roman-74"/>
      <use x="828.076171875" xlink:href="#BitstreamVeraSans-Roman-20"/>
      <use x="859.86328125" xlink:href="#BitstreamVeraSans-Roman-28"/>
      <use x="898.876953125" xlink:href="#BitstreamVeraSans-Roman-4e"/>
      <use x="973.681640625" xlink:href="#BitstreamVeraSans-Roman-6d"/>
      <use x="1071.09375" xlink:href="#BitstreamVeraSans-Roman-29"/>
     </g>
    </g>
   </g>
   <g id="patch_3">
    <path d="
M72 388.8
L518.4 388.8" style="fill:none;stroke:#000000;"/>
   </g>
   <g id="patch_4">
    <path d="
M72 43.2
L518.4 43.2" style="fill:none;stroke:#000000;"/>
   </g>
   <g id="patch_5">
    <path d="
M518.4 388.8
L518.4 43.2" style="fill:none;stroke:#000000;"/>
   </g>
   <g id="patch_6">
    <path d="
M72 388.8
L72 43.2" style="fill:none;stroke:#000000;"/>
   </g>
  </g>
 </g>
 <defs>
  <clipPath id="p7ff5b81e1d">
   <rect height="345.6" width="446.4" x="72.0" y="43.2"/>
  </clipPath>
 </defs>
</svg>
